# xmcd CD database file
# Copyright (C) 1997 Ti Kan
# 
# Track frame offsets:
#     182
#     12372
#     28385
#     39197
#     58577
#     77990
#     91922
#     103790
#     113890
#     126392
#     138800
#     154637
#     173390
#     187432
# 
# Disc length: 2684 seconds
# 
# Revision: 1
# Processed by: cddbd v1.4b41PL1 Copyright (c) Steve Scherf et al.
# Submitted via: DiscPlay 4.0.4
# 
DISCID=b70a7a0e
DTITLE=Quartette - Quartette
DYEAR=1900
DGENRE=
TTITLE0=The Circle
TTITLE1=Denim Blues Eyes
TTITLE2=Unabashedly Blue
TTITLE3=Soul to the Bone
TTITLE4=Neon Cowboy
TTITLE5=It Never Rains on Me
TTITLE6=Hard Times
TTITLE7=Cowboys and Rodeos
TTITLE8=Lost Between Barren Shores
TTITLE9=Papere's Mill
TTITLE10=Hobo Girl
TTITLE11=When God Dips His Pen of Love in My Heart
TTITLE12=Reed Hot Blues
TTITLE13=King of the Cowboys
EXTD=
EXTT0=
EXTT1=
EXTT2=
EXTT3=
EXTT4=
EXTT5=
EXTT6=
EXTT7=
EXTT8=
EXTT9=
EXTT10=
EXTT11=
EXTT12=
EXTT13=
PLAYORDER=
